<?xml version="1.0" encoding="UTF-8" standalone="no"?>
<!-- Created with Inkscape (http://www.inkscape.org/) -->

<svg
   sodipodi:docname="settings_icon.svg"
   inkscape:version="1.1.2 (0a00cf5339, 2022-02-04)"
   id="svg5"
   version="1.1"
   viewBox="0 0 62.177082 62.177086"
   height="235"
   width="235"
   xmlns:inkscape="http://www.inkscape.org/namespaces/inkscape"
   xmlns:sodipodi="http://sodipodi.sourceforge.net/DTD/sodipodi-0.dtd"
   xmlns="http://www.w3.org/2000/svg"
   xmlns:svg="http://www.w3.org/2000/svg">
  <sodipodi:namedview
     id="namedview7"
     pagecolor="#505050"
     bordercolor="#ffffff"
     borderopacity="1"
     inkscape:pageshadow="0"
     inkscape:pageopacity="0"
     inkscape:pagecheckerboard="1"
     inkscape:document-units="mm"
     showgrid="false"
     units="px"
     inkscape:zoom="1.1326109"
     inkscape:cx="506.3522"
     inkscape:cy="-27.370389"
     inkscape:window-width="2560"
     inkscape:window-height="1371"
     inkscape:window-x="0"
     inkscape:window-y="32"
     inkscape:window-maximized="1"
     inkscape:current-layer="layer1"
     fit-margin-top="0"
     fit-margin-left="0"
     fit-margin-right="0"
     fit-margin-bottom="0"
     height="229.1461px" />
  <defs
     id="defs2" />
  <g
     inkscape:label="Layer 1"
     inkscape:groupmode="layer"
     id="layer1"
     transform="translate(1.6616315,-121.55064)">
    <path
       id="path8075"
       style="fill:none;stroke:#000000;stroke-width:3.518;stroke-linecap:round;stroke-linejoin:bevel;stroke-miterlimit:4;stroke-dasharray:none;stroke-opacity:1;stop-color:#000000"
       d="m 1.9512185,144.86218 a 28.555121,28.555121 0 0 1 7.0024041,-12.12877 l 7.5377914,3.04428 m 0,0 a 21.251747,21.251747 0 0 1 5.013701,-2.8586 l 0.919356,-7.96314 m 0,0 a 28.555121,28.555121 0 0 1 7.002436,-0.87189 28.555121,28.555121 0 0 1 6.993744,0.8697 l 1.06395,8.02047 m 0,0 a 21.251747,21.251747 0 0 1 5.069536,2.9523 l 7.352914,-3.18606 m 0,0 a 28.555121,28.555121 0 0 1 6.993167,12.11333 l -6.41405,4.93156 m 0,0 a 21.251747,21.251747 0 0 1 0.192484,2.85382 v 0 a 21.251747,21.251747 0 0 1 -0.203575,2.9345 l 6.427525,4.84246 m 0,0 a 28.555121,28.555121 0 0 1 -7.002412,12.12881 l -7.537794,-3.04428 m 0,0 a 21.251747,21.251747 0 0 1 -5.013677,2.85859 l -0.919533,7.96318 m 0,0 a 28.555121,28.555121 0 0 1 -7.002279,0.87186 28.555121,28.555121 0 0 1 -7.002434,-0.8719 l -1.059251,-8.0199 m 0,0 a 21.251747,21.251747 0 0 1 -4.998911,-2.89855 l -7.4126884,3.141 m 0,0 A 28.555121,28.555121 0 0 1 1.9513561,160.41666 l 6.4047075,-5.01046 m 0,0 a 21.251747,21.251747 0 0 1 -0.180906,-2.76702 21.251747,21.251747 0 0 1 0.203557,-2.93435 l -6.4274961,-4.84265 m 37.9284025,7.777 a 10.45271,10.45271 0 0 1 -10.45271,10.45271 10.45271,10.45271 0 0 1 -10.452711,-10.45271 10.45271,10.45271 0 0 1 10.452711,-10.45271 10.45271,10.45271 0 0 1 10.45271,10.45271 z" />
  </g>
</svg>
